<svg width="640" height="460" viewBox="0 0 640 460" fill="none" xmlns="http://www.w3.org/2000/svg">
  <rect width="640" height="460" rx="24" fill="#F5F5F4"/>
  <rect x="12" y="12" width="616" height="436" rx="18" fill="#FFFBEB" stroke="#D6D3D1" stroke-width="4"/>
  <rect x="20" y="20" width="170" height="70" rx="12" fill="#E7E5E4" stroke="#57534E"/>
  <rect x="220" y="20" width="200" height="70" rx="12" fill="#E7E5E4" stroke="#57534E"/>
  <rect x="450" y="20" width="150" height="70" rx="12" fill="#E7E5E4" stroke="#57534E"/>
  <rect x="40" y="140" width="160" height="120" rx="16" fill="#E7E5E4" stroke="#57534E"/>
  <rect x="240" y="140" width="160" height="120" rx="16" fill="#E7E5E4" stroke="#57534E"/>
  <rect x="40" y="300" width="160" height="120" rx="16" fill="#E7E5E4" stroke="#57534E"/>
  <rect x="240" y="300" width="160" height="120" rx="16" fill="#E7E5E4" stroke="#57534E"/>
  <rect x="450" y="180" width="150" height="180" rx="16" fill="#E7E5E4" stroke="#57534E"/>
  <text x="105" y="60" text-anchor="middle" fill="#292524" font-family="Arial" font-size="20">Quầy món</text>
  <text x="320" y="60" text-anchor="middle" fill="#292524" font-family="Arial" font-size="20">Khu nhận món</text>
  <text x="525" y="60" text-anchor="middle" fill="#292524" font-family="Arial" font-size="20">Quầy nước</text>
  <text x="120" y="205" text-anchor="middle" fill="#292524" font-family="Arial" font-size="28">A1</text>
  <text x="320" y="205" text-anchor="middle" fill="#292524" font-family="Arial" font-size="28">A2</text>
  <text x="120" y="365" text-anchor="middle" fill="#292524" font-family="Arial" font-size="28">B1</text>
  <text x="320" y="365" text-anchor="middle" fill="#292524" font-family="Arial" font-size="28">B2</text>
  <text x="525" y="275" text-anchor="middle" fill="#292524" font-family="Arial" font-size="28">Yên tĩnh</text>
  <text x="320" y="440" text-anchor="middle" fill="#78716C" font-family="Arial" font-size="16">SCIS placeholder floor plan</text>
</svg>
